<svg width="59" height="59" viewBox="0 0 59 59" fill="none" xmlns="http://www.w3.org/2000/svg">
<circle cx="29.5" cy="29.5" r="28" stroke="#A6A4A4" stroke-width="3"/>
<circle cx="20" cy="21" r="3" fill="#A6A4A4"/>
<path d="M43 21C43 22.6569 41.6569 24 40 24C38.3431 24 37 22.6569 37 21C37 19.3431 38.3431 18 40 18C41.6569 18 43 19.3431 43 21Z" fill="#A6A4A4"/>
<path d="M44.2491 36.3824C43.2572 38.5607 41.3323 40.4652 38.7427 41.8303C36.1532 43.1955 33.028 43.9532 29.8028 43.9979C26.5776 44.0426 23.4131 43.3721 20.7504 42.0798C18.0876 40.7875 16.0594 38.9379 14.9484 36.7886L19.0678 35.7161C19.8643 37.2569 21.3184 38.5829 23.2273 39.5094C25.1362 40.4358 27.4049 40.9165 29.7171 40.8845C32.0292 40.8524 34.2697 40.3092 36.1262 39.3305C37.9827 38.3519 39.3626 36.9865 40.0737 35.4248L44.2491 36.3824Z" fill="#A6A4A4"/>
</svg>
