<svg id="Layer_1" enable-background="new 0 0 512 512" viewBox="0 0 512 512" xmlns="http://www.w3.org/2000/svg"><g><path d="m256 0c-141.159 0-256 114.841-256 256s114.841 256 256 256 256-114.841 256-256-114.841-256-256-256zm0 482c-124.617 0-226-101.383-226-226s101.383-226 226-226 226 101.383 226 226-101.383 226-226 226z"/><path d="m374.931 292h-237.863c-8.284 0-15 6.716-15 15v2.068c0 73.851 60.081 133.932 133.932 133.932s133.932-60.081 133.932-133.931v-2.069c-.001-8.284-6.717-15-15.001-15zm-161.296 111.964c8.297-8.953 24.456-14.964 41.838-14.964 17.668 0 34.005 6.213 42.155 15.294-12.752 5.596-26.834 8.706-41.628 8.706-15.081 0-29.419-3.233-42.365-9.036zm109.544-15.657c-13.38-17.769-39.036-29.307-67.706-29.307-28.319 0-53.795 11.193-67.31 28.739-19.009-16.414-32.032-39.581-35.294-65.738h206.262c-3.299 26.458-16.584 49.861-35.952 66.306z"/><path d="m142.959 216.886 28.292-38.478c.008-.011.016-.021.023-.031.011.013.021.028.033.044l28.512 38.506c4.929 6.657 14.324 8.058 20.981 3.129 6.658-4.93 8.059-14.324 3.129-20.981l-28.512-38.505c-5.739-7.75-14.537-12.193-24.145-12.193-.011 0-.023 0-.034 0-9.632.011-18.438 4.481-24.159 12.262l-28.292 38.478c-4.907 6.674-3.475 16.063 3.199 20.971 2.676 1.968 5.788 2.916 8.874 2.916 4.611-.003 9.16-2.12 12.099-6.118z"/><path d="m364.668 160.568c-5.739-7.75-14.537-12.193-24.145-12.193-.011 0-.023 0-.034 0-9.632.011-18.438 4.481-24.159 12.262l-28.292 38.478c-4.907 6.674-3.475 16.063 3.199 20.971 2.676 1.968 5.788 2.916 8.874 2.916 4.609 0 9.158-2.117 12.097-6.115l28.292-38.478c.008-.011.016-.021.023-.031.011.013.021.028.033.044l28.512 38.506c4.93 6.657 14.323 8.058 20.981 3.129 6.658-4.93 8.059-14.324 3.129-20.981z"/></g></svg>
