<svg viewBox="0 0 512 512" xmlns="http://www.w3.org/2000/svg"><path d="m256 0c-32.050781 0-64.136719 5.964844-93.367188 17.277344-16.554687-10.914063-36.363281-17.277344-57.632812-17.277344-57.898438 0-105 47.101562-105 105 0 20.402344 5.859375 40.1875 16.945312 57.214844l.300782.460937c-11.4375 29.40625-17.246094 60.421875-17.246094 92.324219 0 139.871094 113.992188 257 256 257 140.570312 0 256-115.675781 256-257 0-140.605469-114.839844-255-256-255zm-151 30c41.355469 0 75 33.644531 75 75 0 14.574219-4.179688 28.699219-12.089844 40.847656l-62.910156 96.65625c-3.667969-5.636718-60.613281-93.121094-62.910156-96.65625-7.910156-12.148437-12.089844-26.273437-12.089844-40.847656 0-41.355469 33.644531-75 75-75zm-75 225c0-20.582031 2.738281-40.734375 8.144531-60.214844l54.285157 83.398438c2.765624 4.25 7.496093 6.816406 12.570312 6.816406s9.804688-2.566406 12.570312-6.816406l73.726563-113.265625 10.410156 5.207031c5.113281 2.558594 8.292969 7.699219 8.292969 13.417969v41.457031c0 8.269531-6.726562 15-15 15-5.015625 0-9.699219 2.507812-12.480469 6.679688l-38.210937 57.320312c-16.460938 24.691406-4.96875 58.257812 23.210937 67.648438l13.25 4.417968c9.726563 3.242188 13.40625 15.03125 7.257813 23.230469-.042969.058594-40.035156 55.054687-40.035156 55.054687-70.238282-38.546874-117.992188-113.453124-117.992188-199.351562zm145.742188 212.195312 36.359374-49.996093c18.28125-24.507813 7.375-59.851563-21.84375-69.589844l-13.253906-4.417969c-9.386718-3.128906-13.226562-14.3125-7.738281-22.550781l34.308594-51.457031c20.726562-4.015625 36.425781-22.300782 36.425781-44.183594v-41.460938c0-17.152343-9.53125-32.574218-24.875-40.25l-10.449219-5.222656c3.507813-10.585937 5.324219-21.730468 5.324219-33.066406 0-24.386719-8.355469-46.855469-22.355469-64.699219 15.804688-4.898437 32.359375-8.089843 49.117188-9.484375l64.722656 51.78125c1.683594 1.347656 3.082031 3.078125 4.046875 5.003906l18.761719 37.523438c7.671875 15.34375 23.09375 24.875 40.246093 24.875h11.460938c8.269531 0 15 6.730469 15 15s-6.730469 15-15 15c-24.8125 0-45 20.1875-45 45v17.574219c0 12.019531 4.679688 23.320312 13.179688 31.820312l30 30c5.851562 5.847657 5.851562 15.363281 0 21.210938l-80.386719 80.390625c-15.6875 15.683594-17.546875 41.886718-4.261719 59.714844l8.894531 12.261718c-13.746093 2.632813-27.925781 4.027344-42.425781 4.027344-28.253906 0-55.300781-5.25-80.257812-14.804688zm153.730468 2.480469s-15.8125-21.796875-15.859375-21.859375c-4.464843-5.953125-3.828125-15.386718 1.394531-20.605468l80.386719-80.390626c17.546875-17.546874 17.546875-46.09375 0-63.640624l-30-30c-2.832031-2.832032-4.394531-6.601563-4.394531-10.605469v-17.574219c0-8.269531 6.730469-15 15-15 24.8125 0 45-20.1875 45-45s-20.1875-45-45-45h-11.457031c-5.71875 0-10.859375-3.175781-13.417969-8.292969l-18.761719-37.519531c-2.890625-5.78125-7.085937-10.976562-12.136719-15.015625l-33.929687-27.144531c110.339844 14.785156 195.703125 109.132812 195.703125 222.972656 0 99.34375-63.871094 183.980469-152.527344 214.675781zm0 0"/><path d="m105 150c24.8125 0 45-20.1875 45-45s-20.1875-45-45-45-45 20.1875-45 45 20.1875 45 45 45zm0-60c8.269531 0 15 6.730469 15 15s-6.730469 15-15 15-15-6.730469-15-15 6.730469-15 15-15zm0 0"/></svg>
