<?xml version="1.0" encoding="iso-8859-1"?>
<!-- Generator: Adobe Illustrator 19.0.0, SVG Export Plug-In . SVG Version: 6.00 Build 0)  -->
<svg version="1.1" id="Capa_1" xmlns="http://www.w3.org/2000/svg" xmlns:xlink="http://www.w3.org/1999/xlink" x="0px" y="0px"
	 viewBox="0 0 512 512" style="enable-background:new 0 0 512 512;" xml:space="preserve">
<g>
	<g>
		<path d="M512,196.051c0-62.604-23.005-111.161-79.243-138.109c-49.18-23.566-116.836-26.743-176.531-26.743
			S128.874,34.376,79.694,57.942C23.46,84.889,0.452,133.442,0.452,196.053v44.96h22.132L0,293.13l13.013,6.386
			c6.481,3.184,11.862,6.93,17.412,11.166v50.225H0.451v14.987c0,57.846,47.509,104.907,105.906,104.907h300.734
			c57.846,0,104.907-47.327,104.907-104.907v-14.987h-29.974v-51.621c4.828-3.467,9.474-6.445,15.223-9.074l14.569-6.66
			l-22.182-52.54H512V196.051z M407.093,450.828H106.358c-36.67,0-67.352-25.886-74.407-60.047h448.57
			C473.558,424.941,443.279,450.828,407.093,450.828z M449.302,296.198c-9.528,6.801-25.624,3.446-30.815-4.342
			c-9.483-14.223-25.536-22.715-42.943-22.715c-17.408,0-33.46,8.492-42.943,22.715c-8.292,12.437-26.623,12.577-35.007,0
			c-9.483-14.223-25.35-22.715-42.444-22.715c-17.094,0-32.961,8.492-42.444,22.715c-8.292,12.437-26.623,12.577-35.007,0
			c-9.483-14.223-25.35-22.715-42.444-22.715c-17.094,0-32.961,8.492-42.443,22.715c-7.087,10.629-21.962,12.103-31.309,5.012
			c-7.88-5.979-14.772-11.85-22.99-17.231l16.736-38.623h401.848l16.096,38.123C464.558,284.437,457.586,290.283,449.302,296.198z
			 M452.053,327.654v33.255H60.399v-0.001v-31.722c20.824,5.904,44.4-1.271,57.354-20.703c3.969-5.953,10.349-9.368,17.504-9.368
			c7.156,0,13.535,3.414,17.504,9.368c20.155,30.232,64.681,30.309,84.887,0c3.969-5.953,10.349-9.368,17.504-9.368
			c7.156,0,13.535,3.414,17.504,9.368c20.154,30.231,64.68,30.31,84.887,0c3.969-5.953,10.531-9.368,18.003-9.368
			s14.035,3.414,18.003,9.368C405.118,325.841,430.054,334.123,452.053,327.654z M482.026,211.04H30.425v-14.987
			c0-55.442,19.772-90.739,62.221-111.08c43.768-20.972,107.251-23.801,163.58-23.801S376.037,64,419.805,84.973
			c42.451,20.341,62.221,55.638,62.221,111.08V211.04z"/>
	</g>
</g>
<g>
	<g>
		<rect x="121.343" y="151.097" width="29.974" height="29.974"/>
	</g>
</g>
<g>
	<g>
		<rect x="241.237" y="151.097" width="29.974" height="29.974"/>
	</g>
</g>
<g>
	<g>
		<rect x="361.131" y="151.097" width="29.974" height="29.974"/>
	</g>
</g>
<g>
	<g>
		<rect x="301.184" y="91.15" width="29.974" height="29.974"/>
	</g>
</g>
<g>
	<g>
		<rect x="181.29" y="91.15" width="29.974" height="29.974"/>
	</g>
</g>
<g>
</g>
<g>
</g>
<g>
</g>
<g>
</g>
<g>
</g>
<g>
</g>
<g>
</g>
<g>
</g>
<g>
</g>
<g>
</g>
<g>
</g>
<g>
</g>
<g>
</g>
<g>
</g>
<g>
</g>
</svg>
