<svg id="Capa_1" enable-background="new 0 0 512.042 512.042" viewBox="0 0 512.042 512.042" xmlns="http://www.w3.org/2000/svg"><path d="m494.275 16.499c-61.349-22.945-111.4-18.545-157.696-7.33-15.753 4.229-33.2 9.062-47.395 13.352-4.569 1.381-38.602 12.984-74.36 18.577-31.178 4.635-64.051 3.893-101.802-8.515v-17.541c0-8.284-6.716-15-15-15s-15 6.716-15 15v467h-60c-8.284 0-15 6.716-15 15s6.716 15 15 15h150c8.284 0 15-6.716 15-15s-6.716-15-15-15h-60v-118.071c24.117 6.985 46.491 9.793 67.622 9.793 42.687 0 80.339-11.378 117.22-22.523 57.93-17.505 112.646-34.04 185.902-6.642 4.605 1.722 9.764 1.079 13.805-1.724 4.04-2.803 6.45-7.408 6.45-12.325v-300c0-6.258-3.885-11.858-9.746-14.051zm-81.253 136.104c22.014-.763 37.617.69 60.999 8.532v28.564c-22.316-6.506-39.505-7.787-60.999-7.108zm60.999-22.904c-22.316-6.506-39.507-7.787-60.999-7.108v-29.989c22.013-.763 37.618.691 60.999 8.533zm-60.999 82.903c22.014-.763 37.618.691 60.999 8.532v28.564c-22.316-6.506-39.505-7.787-60.999-7.108zm60.999-142.903c-22.314-6.506-39.504-7.786-60.999-7.108v-32.438c19.121.606 39.249 3.872 60.999 11.02zm-211.001 260.558c-9.958 2.812-19.92 5.397-29.997 7.537v-269.383c10.191-1.982 20.166-4.394 29.997-7.039zm-149.997-266.269c10.311 2.987 20.291 5.182 30.001 6.745l.001 269.545c-9.68-1.777-19.655-4.289-30.002-7.689zm60.001 279.598-.001-269.961c10.278.328 20.26-.02 29.999-.896v269.837c-9.77.983-19.735 1.395-29.998 1.02zm119.996-22.22v-268.665c1.615-.487 3.229-.975 4.842-1.462 8.432-2.548 16.796-5.073 25.159-7.448l-.001 268.872c-10.121 2.741-20.094 5.714-30 8.703zm60-15.824.001-269.354c9.857-2.124 19.823-3.819 30.001-4.888v222.742c0 .708-.035 4.111.026 5.159.486 8.27 7.567 14.576 15.856 14.092 30.197-1.78 47.048-1.572 75.116 7.842v28.639c-45.39-13.147-84.572-11.426-121-4.232z"/></svg>
